<?xml version="1.0" ?><svg viewBox="0 0 24 24" xmlns="http://www.w3.org/2000/svg"><title/><g id="Apple"><g data-name="&lt;Group&gt;" id="_Group_"><path d="M12.5,5.5a5,5,0,0,0,4-5A5,5,0,0,0,12.5,5.5Z" data-name="&lt;Path&gt;" id="_Path_" style="fill:none;stroke:#303c42;stroke-linecap:round;stroke-linejoin:round"/><path d="M18.5,12.5A5,5,0,0,1,21,8.22,5.43,5.43,0,0,0,17,6.5c-1.8,0-2.57,1-4.5,1s-2.7-1-4.5-1-5.5,1-5.5,6.5S6.25,23.5,8,23.5c2.32,0,2.79-1,4.5-1s2.18,1,4.5,1c1.29,0,3.33-2.9,4.5-6.5A4.81,4.81,0,0,1,18.5,12.5Z" data-name="&lt;Path&gt;" id="_Path_2" style="fill:none;stroke:#303c42;stroke-linecap:round;stroke-linejoin:round"/></g></g></svg>