<?xml version="1.0" ?><!DOCTYPE svg  PUBLIC '-//W3C//DTD SVG 1.1//EN'  'http://www.w3.org/Graphics/SVG/1.1/DTD/svg11.dtd'><svg height="512px" style="enable-background:new 0 0 512 512;" version="1.1" viewBox="0 0 512 512" width="512px" xml:space="preserve" xmlns="http://www.w3.org/2000/svg" xmlns:xlink="http://www.w3.org/1999/xlink"><g id="comp_x5F_181-java"><g><path d="M333.283,307.117c8.806-6.02,21.023-11.23,21.023-11.23s-34.768,6.29-69.358,9.165    c-42.314,3.503-87.774,4.221-110.594,1.167c-53.996-7.187,29.647-27.044,29.647-27.044s-32.433-2.154-72.413,17.07    C84.422,319.066,248.383,329.487,333.283,307.117z M256.56,278.277c-17.07-38.362-74.659-72.054,0-130.99    C349.727,73.797,301.929,26,301.929,26c19.316,75.917-67.919,98.917-99.455,146.084    C181.001,204.337,212.986,238.927,256.56,278.277z M359.517,119.975c0.091,0-157.402,39.351-82.204,125.958    c22.19,25.516-5.84,48.516-5.84,48.516s56.332-29.108,30.456-65.495C277.762,194.993,259.254,178.103,359.517,119.975z     M354.038,362.999c-0.449,1.078-1.797,2.247-1.797,2.336c115.267-30.277,72.861-106.824,17.788-87.416    c-4.853,1.707-7.366,5.66-7.366,5.66s3.053-1.259,9.883-2.696C400.396,275.044,440.376,318.168,354.038,362.999L354.038,362.999z     M396.443,418.971c0,0,13.027,10.692-14.285,19.047c-52.019,15.722-216.339,20.483-261.979,0.63    c-16.441-7.099,14.374-17.072,24.078-19.137c10.061-2.157,15.901-1.799,15.901-1.799c-18.238-12.847-117.963,25.247-50.671,36.119    C292.944,483.657,444.061,440.443,396.443,418.971L396.443,418.971z M195.557,381.776    c-70.706,19.766,43.035,60.555,133.055,22.011c-14.733-5.748-25.334-12.397-25.334-12.397c-40.16,7.637-58.756,8.175-95.233,4.043    C177.948,392.019,195.557,381.776,195.557,381.776L195.557,381.776z M357.091,469.103c-70.704,13.296-157.94,11.771-209.601,3.233    c0-0.088,10.602,8.716,65.046,12.22c82.834,5.302,210.05-2.966,213.015-42.136C425.552,442.42,419.803,457.245,357.091,469.103    L357.091,469.103z M317.922,343.144c-53.188,10.243-84.003,9.973-122.904,5.93c-30.098-3.145-10.422-17.698-10.422-17.698    c-77.982,25.874,43.304,55.164,152.281,23.269C325.288,350.601,317.922,343.144,317.922,343.144z"/></g></g><g id="Layer_1"/></svg>